<svg width="20" height="20" viewBox="0 0 20 20" fill="none" xmlns="http://www.w3.org/2000/svg">
<path d="M7.08335 0.125011C6.07501 0.408344 5.18335 1.31668 4.98335 2.25834C4.89168 2.71668 4.87501 2.73334 4.59168 2.78334C4.10835 2.85834 3.47501 3.21668 3.02501 3.67501C1.83335 4.86668 1.70001 6.69168 2.70835 8.09168L3.00001 8.50001L2.69168 8.77501C1.95835 9.41668 1.56668 10.075 1.37501 10.975C1.21668 11.6917 1.22502 12.1417 1.37501 12.875C1.71668 14.475 2.82501 15.65 4.15001 15.8083L4.56668 15.8583L4.57501 16.3417C4.57501 17.6833 5.78335 18.5833 7.58335 18.5833C8.33335 18.5833 8.90835 18.4417 9.18335 18.1917C9.29168 18.0917 9.33335 17.9333 9.33335 17.6167V17.1833L8.60835 17.1333C7.57501 17.0583 7.19168 16.8917 6.87501 16.3833L6.62501 15.975L6.60001 12.8833L6.57501 9.79168L6.79168 9.45834C7.18335 8.85834 7.46668 8.72501 8.46668 8.68334L9.33335 8.64168V4.54168V0.433344L8.91668 0.258345C8.36668 0.0166779 7.65835 -0.0333214 7.08335 0.125011Z" fill="var(--dui-text-primary)"/>
<path d="M11.7583 0.0750141C11.6083 0.11668 11.3333 0.216681 11.1583 0.291679L10.8333 0.441679V4.54168V8.64168L11.7 8.68334C12.7 8.72501 12.9833 8.85835 13.375 9.45835L13.5917 9.79168L13.5667 12.8833L13.5417 15.975L13.2917 16.3833C12.975 16.8917 12.5917 17.0583 11.5667 17.1333L10.8333 17.1833V17.6167C10.8333 17.9333 10.875 18.0917 10.9833 18.1917C11.2583 18.4417 11.8333 18.5833 12.5833 18.5833C14.3833 18.5833 15.5917 17.6833 15.5917 16.3417L15.6 15.8583L16.0167 15.8083C17.3417 15.65 18.45 14.475 18.7917 12.875C18.9417 12.1417 18.95 11.6917 18.7917 10.975C18.6 10.075 18.2083 9.41668 17.475 8.77501L17.1667 8.50001L17.4583 8.09168C18.4667 6.69168 18.3333 4.86668 17.1417 3.67501C16.6917 3.21668 16.0583 2.85835 15.575 2.78335C15.2917 2.73335 15.275 2.71668 15.1833 2.26668C15 1.38335 14.2167 0.51668 13.3333 0.208347C12.8667 0.0416794 12.1333 -0.0166531 11.7583 0.0750141Z" fill="var(--dui-text-primary)"/>
<path d="M9.45836 10C8.73336 10.0583 8.57502 10.1167 8.23336 10.475C7.83336 10.8917 7.81669 11.0417 7.88336 13.25L7.94169 15.2917L8.21669 15.5583L8.48336 15.8333H10.0834H11.6834L11.95 15.5583L12.225 15.2917L12.2834 13.2417C12.35 10.9833 12.3334 10.8333 11.8667 10.4C11.3834 9.95001 10.9417 9.87501 9.45836 10Z" fill="var(--dui-text-primary)"/>
</svg>
