<svg width="20" height="20" viewBox="0 0 20 20" fill="none" xmlns="http://www.w3.org/2000/svg">
<path d="M16.6667 11.4583C16.6667 11.2926 16.6008 11.1336 16.4836 11.0164C16.3664 10.8992 16.2074 10.8333 16.0417 10.8333H13.5417C13.3759 10.8333 13.2169 10.8992 13.0997 11.0164C12.9825 11.1336 12.9167 11.2926 12.9167 11.4583V17.0833H11.6667V3.54167C11.6667 2.93501 11.665 2.54167 11.6267 2.25334C11.59 1.98251 11.5308 1.89751 11.4833 1.85001C11.4358 1.80251 11.3508 1.74334 11.08 1.70667C10.7908 1.66834 10.3983 1.66667 9.79166 1.66667C9.185 1.66667 8.79166 1.66834 8.50333 1.70667C8.2325 1.74334 8.1475 1.80251 8.1 1.85001C8.0525 1.89751 7.99333 1.98251 7.95666 2.25334C7.91833 2.54251 7.91666 2.93501 7.91666 3.54167V17.0833H6.66666V7.29167C6.66666 7.12591 6.60081 6.96694 6.4836 6.84973C6.36639 6.73252 6.20742 6.66667 6.04166 6.66667H3.54166C3.3759 6.66667 3.21693 6.73252 3.09972 6.84973C2.98251 6.96694 2.91666 7.12591 2.91666 7.29167V17.0833H1.45833C1.29257 17.0833 1.1336 17.1492 1.01639 17.2664C0.899176 17.3836 0.833328 17.5426 0.833328 17.7083C0.833328 17.8741 0.899176 18.0331 1.01639 18.1503C1.1336 18.2675 1.29257 18.3333 1.45833 18.3333H18.125C18.2908 18.3333 18.4497 18.2675 18.5669 18.1503C18.6841 18.0331 18.75 17.8741 18.75 17.7083C18.75 17.5426 18.6841 17.3836 18.5669 17.2664C18.4497 17.1492 18.2908 17.0833 18.125 17.0833H16.6667V11.4583Z" fill="var(--dui-text-primary)"/>
</svg>
