<svg width="20" height="20" viewBox="0 0 20 20" fill="none" xmlns="http://www.w3.org/2000/svg">
<path d="M10.7507 10.483V9.517C12.0417 9.176 12.9987 7.98167 12.9987 6.56L12.9994 3.50233C13.0006 2.08133 12.042 0.886667 10.7491 0.545667V0.000666698L9.24992 0V0.545667C7.95859 0.886 7.00063 2.081 7.00063 3.50233V6.56067C7.00127 7.982 7.95859 9.177 9.24992 9.51767V10.483C7.95891 10.8237 7.00063 12.018 7 13.4393L7.00063 16.4977C7.00063 17.9197 7.95827 19.114 9.25024 19.455L9.24992 19.9993L10.7498 20V19.455C12.0417 19.114 13 17.9197 13 16.4983V13.4407C13 12.0183 12.0427 10.8243 10.7507 10.483ZM8.50143 6.56067L8.50079 3.50233C8.50047 2.93533 8.80817 2.445 9.25943 2.18133C9.35925 3.026 10.6411 3.02533 10.7403 2.181C11.1918 2.44467 11.4998 2.93533 11.5008 3.50367L11.5002 6.561C11.4998 7.134 11.1849 7.62833 10.7257 7.89C10.5511 7.17267 9.44829 7.17267 9.27495 7.89033C8.81578 7.62833 8.50111 7.13367 8.50143 6.56067ZM10.7396 17.8197C10.6404 16.9747 9.35925 16.9747 9.25911 17.819C8.80818 17.555 8.50016 17.0643 8.50047 16.4977V13.4407C8.50079 12.867 8.81578 12.3723 9.27527 12.111C9.45083 12.8287 10.552 12.8283 10.7257 12.1107C11.1849 12.3723 11.4998 12.8673 11.4989 13.4407L11.4995 16.4977C11.4998 17.065 11.1912 17.556 10.7396 17.8197Z" fill="var(--dui-text-primary)"/>
</svg>
