<svg width="20" height="20" viewBox="0 0 20 20" fill="none" xmlns="http://www.w3.org/2000/svg">
<path d="M12.2583 5.59166C12.1812 5.51441 12.0897 5.45312 11.9889 5.4113C11.888 5.36949 11.78 5.34796 11.6708 5.34796C11.5617 5.34796 11.4536 5.36949 11.3528 5.4113C11.252 5.45312 11.1604 5.51441 11.0833 5.59166L7.25834 9.41667C7.18108 9.49376 7.11979 9.58533 7.07798 9.68614C7.03616 9.78696 7.01463 9.89502 7.01463 10.0042C7.01463 10.1133 7.03616 10.2214 7.07798 10.3222C7.11979 10.423 7.18108 10.5146 7.25834 10.5917L11.0833 14.4167C11.1605 14.4938 11.2521 14.555 11.3529 14.5968C11.4537 14.6385 11.5617 14.66 11.6708 14.66C11.7799 14.66 11.888 14.6385 11.9888 14.5968C12.0896 14.555 12.1812 14.4938 12.2583 14.4167C12.3355 14.3395 12.3967 14.2479 12.4384 14.1471C12.4802 14.0463 12.5017 13.9383 12.5017 13.8292C12.5017 13.7201 12.4802 13.612 12.4384 13.5112C12.3967 13.4104 12.3355 13.3188 12.2583 13.2417L9.025 10L12.2583 6.76666C12.5833 6.44166 12.575 5.90833 12.2583 5.59166Z" fill="var(--dui-text-primary)"/>
</svg>
