<svg width="20" height="20" viewBox="0 0 20 20" fill="none" xmlns="http://www.w3.org/2000/svg">
<path d="M5.34583 7.50382C5.26858 7.58092 5.20729 7.67249 5.16547 7.7733C5.12365 7.87411 5.10213 7.98218 5.10213 8.09132C5.10213 8.20046 5.12365 8.30853 5.16547 8.40934C5.20729 8.51016 5.26858 8.60173 5.34583 8.67882L9.17083 12.5038C9.24793 12.5811 9.3395 12.6424 9.44031 12.6842C9.54112 12.726 9.64919 12.7475 9.75833 12.7475C9.86747 12.7475 9.97554 12.726 10.0764 12.6842C10.1772 12.6424 10.2687 12.5811 10.3458 12.5038L14.1708 8.67882C14.248 8.60167 14.3092 8.51008 14.3509 8.40928C14.3927 8.30847 14.4142 8.20043 14.4142 8.09132C14.4142 7.98222 14.3927 7.87418 14.3509 7.77337C14.3092 7.67257 14.248 7.58098 14.1708 7.50382C14.0937 7.42667 14.0021 7.36547 13.9013 7.32372C13.8005 7.28196 13.6924 7.26047 13.5833 7.26047C13.4742 7.26047 13.3662 7.28196 13.2654 7.32372C13.1646 7.36547 13.073 7.42667 12.9958 7.50382L9.75416 10.7372L6.52083 7.50382C6.19583 7.17882 5.6625 7.18716 5.34583 7.50382Z" fill="var(--dui-text-primary)"/>
</svg>
