<svg width="20" height="20" viewBox="0 0 20 20" fill="none" xmlns="http://www.w3.org/2000/svg">
<path d="M7.25798 14.4163C7.33508 14.4936 7.42665 14.5549 7.52746 14.5967C7.62827 14.6385 7.73634 14.66 7.84548 14.66C7.95462 14.66 8.06269 14.6385 8.1635 14.5967C8.26431 14.5549 8.35589 14.4936 8.43298 14.4163L12.258 10.5913C12.3352 10.5142 12.3965 10.4226 12.4383 10.3218C12.4802 10.221 12.5017 10.113 12.5017 10.0038C12.5017 9.89467 12.4802 9.78661 12.4383 9.68579C12.3965 9.58498 12.3352 9.49341 12.258 9.41632L8.43298 5.59132C8.35583 5.51416 8.26424 5.45296 8.16343 5.41121C8.06263 5.36946 7.95459 5.34797 7.84548 5.34797C7.73637 5.34797 7.62833 5.36946 7.52753 5.41121C7.42673 5.45296 7.33513 5.51416 7.25798 5.59132C7.18083 5.66847 7.11963 5.76006 7.07788 5.86086C7.03612 5.96167 7.01463 6.06971 7.01463 6.17882C7.01463 6.28792 7.03612 6.39596 7.07788 6.49677C7.11963 6.59757 7.18083 6.68916 7.25798 6.76631L10.4913 10.008L7.25798 13.2413C6.93298 13.5663 6.94132 14.0996 7.25798 14.4163Z" fill="var(--dui-text-primary)"/>
</svg>
