<svg width="20" height="20" viewBox="0 0 20 20" fill="none" xmlns="http://www.w3.org/2000/svg">
<path d="M14.1705 12.5042C14.2477 12.4271 14.309 12.3355 14.3508 12.2347C14.3927 12.1339 14.4142 12.0258 14.4142 11.9167C14.4142 11.8075 14.3927 11.6995 14.3508 11.5987C14.309 11.4978 14.2477 11.4063 14.1705 11.3292L10.3455 7.50417C10.2684 7.42692 10.1768 7.36563 10.076 7.32381C9.97519 7.28199 9.86712 7.26047 9.75798 7.26047C9.64884 7.26047 9.54077 7.28199 9.43996 7.32381C9.33915 7.36563 9.24758 7.42692 9.17048 7.50417L5.34548 11.3292C5.26833 11.4063 5.20713 11.4979 5.16537 11.5987C5.12362 11.6995 5.10213 11.8076 5.10213 11.9167C5.10213 12.0258 5.12362 12.1338 5.16537 12.2346C5.20713 12.3354 5.26833 12.427 5.34548 12.5042C5.42263 12.5813 5.51422 12.6425 5.61503 12.6843C5.71583 12.726 5.82387 12.7475 5.93298 12.7475C6.04209 12.7475 6.15013 12.726 6.25093 12.6843C6.35174 12.6425 6.44333 12.5813 6.52048 12.5042L9.76215 9.27084L12.9955 12.5042C13.3205 12.8292 13.8538 12.8208 14.1705 12.5042Z" fill="var(--dui-text-primary)"/>
</svg>
