<svg width="20" height="20" viewBox="0 0 20 20" fill="none" xmlns="http://www.w3.org/2000/svg">
<path d="M15.4688 15.875H5.3125C3.88906 15.875 2.56406 15.384 1.58164 14.4918C0.561719 13.5656 0 12.2812 0 10.875C0 9.44609 0.523047 8.21406 1.5125 7.31171C2.29102 6.60117 3.35312 6.11796 4.53516 5.93007C4.90452 4.96586 5.51225 4.11099 6.30156 3.44531C7.33438 2.58164 8.61328 2.125 10 2.125C11.5599 2.11821 13.061 2.71929 14.1852 3.80078C15.2422 4.81875 15.927 6.19453 16.1816 7.80312C18.1078 8.08828 20 9.39648 20 11.8125C20 13.1168 19.5219 14.1867 18.6168 14.9074C17.8215 15.5402 16.7332 15.875 15.4688 15.875Z" fill="var(--dui-text-primary)"/>
</svg>
