<svg width="20" height="20" viewBox="0 0 20 20" fill="none" xmlns="http://www.w3.org/2000/svg">
<path d="M18.1696 10.6122L18.1696 9.37782L15.518 9.37782C15.2528 7.96712 13.9712 6.86501 12.4686 6.86501L9.375 6.86501L9.375 13.125H12.4686C13.9712 13.125 15.2528 12.0229 15.518 10.6122L18.1696 10.6122ZM12.4244 11.8466L10.5682 11.8466L10.5682 8.14346L12.4244 8.14346C13.4851 8.14346 14.3247 8.98106 14.2805 9.995C14.2805 11.053 13.4409 11.8906 12.4244 11.8466ZM9.41965 11.8437L9.41965 10.6094V9.37502L9.41965 8.14066L9.41965 6.90629L6.32606 6.90629C4.82346 6.90629 3.54182 8.00841 3.27666 9.41911H0.625006L0.625006 10.6535L3.27666 10.6535C3.40924 11.2266 3.7186 11.7997 4.16054 12.2405C4.60248 12.6814 5.53056 13.1663 6.37025 13.1222L9.46384 13.1222L9.46384 11.8878L9.41965 11.8437ZM6.28186 11.7997C5.30959 11.7997 4.4257 10.918 4.4257 9.94812C4.42571 8.89009 5.2654 8.05249 6.28186 8.09657L8.13802 8.09657L8.13802 11.7997L6.28186 11.7997Z" fill="var(--dui-text-primary)"/>
</svg>
