<svg width="20" height="20" viewBox="0 0 20 20" fill="none" xmlns="http://www.w3.org/2000/svg">
<path d="M18.3333 5.625H16.0092C15.5083 5.625 15.2575 5.625 15.0217 5.55334C14.7858 5.48167 14.5767 5.34334 14.16 5.065C13.535 4.64834 12.8217 4.17334 12.4675 4.065C12.1133 3.95834 11.7375 3.95834 10.9858 3.95834C9.96417 3.95834 9.30584 3.95834 8.84584 4.14834C8.3875 4.33917 8.02584 4.7 7.3025 5.42334L6.66667 6.05834C6.50417 6.22167 6.4225 6.30334 6.3725 6.38334C6.28147 6.52883 6.23758 6.69888 6.24682 6.87026C6.25607 7.04164 6.31801 7.20598 6.42417 7.34084C6.48251 7.415 6.57251 7.4875 6.75167 7.63167C7.41501 8.165 8.37084 8.11167 8.97167 7.5075L10 6.47334H10.8333L15.8333 11.5033C16.0539 11.7264 16.1777 12.0275 16.1777 12.3413C16.1777 12.655 16.0539 12.9561 15.8333 13.1792C15.7241 13.289 15.5943 13.3762 15.4513 13.4357C15.3083 13.4952 15.1549 13.5258 15 13.5258C14.8451 13.5258 14.6917 13.4952 14.5487 13.4357C14.4057 13.3762 14.2759 13.289 14.1667 13.1792L13.75 12.7608M13.75 12.7608L11.25 10.2458M9.58334 11.9317L11.25 13.5983L12.0833 14.4367C12.1925 14.5465 12.3224 14.6337 12.4654 14.6932C12.6084 14.7527 12.7618 14.7833 12.9167 14.7833C13.0716 14.7833 13.2249 14.7527 13.3679 14.6932C13.511 14.6337 13.6408 14.5465 13.75 14.4367C13.9706 14.2136 14.0943 13.9125 14.0943 13.5988C14.0943 13.285 13.9706 12.9839 13.75 12.7608M7.91667 13.5983L8.33334 14.0175L9.58334 15.275C9.69254 15.3849 9.82238 15.472 9.96539 15.5315C10.1084 15.591 10.2618 15.6216 10.4167 15.6216C10.5716 15.6216 10.7249 15.591 10.8679 15.5315C11.011 15.472 11.1408 15.3849 11.25 15.275C11.4709 15.0519 11.5948 14.7506 11.5948 14.4367C11.5948 14.1227 11.4709 13.8215 11.25 13.5983M8.33334 14.0175C8.5542 14.2406 8.67809 14.5419 8.67809 14.8558C8.67809 15.1698 8.5542 15.471 8.33334 15.6942C8.22414 15.804 8.0943 15.8912 7.95128 15.9507C7.80827 16.0102 7.6549 16.0408 7.5 16.0408C7.34511 16.0408 7.19174 16.0102 7.04873 15.9507C6.90571 15.8912 6.77587 15.804 6.66667 15.6942L4.31334 13.2925C3.83001 12.7992 3.58834 12.5517 3.27834 12.4217C2.96917 12.2917 2.62334 12.2917 1.93251 12.2917H1.66667" stroke="var(--dui-text-primary)" stroke-width="1.5" stroke-linecap="round" stroke-linejoin="round"/>
<path d="M18.3333 12.2917H16.25M7.08334 5.625H1.66667" stroke="var(--dui-text-primary)" stroke-width="1.5" stroke-linecap="round"/>
</svg>
