<svg width="20" height="20" viewBox="0 0 20 20" fill="none" xmlns="http://www.w3.org/2000/svg">
<path d="M16.7188 3.75V6.875C16.7188 6.99932 16.6694 7.11855 16.5815 7.20646C16.4935 7.29436 16.3743 7.34375 16.25 7.34375C16.1257 7.34375 16.0065 7.29436 15.9185 7.20646C15.8306 7.11855 15.7812 6.99932 15.7812 6.875V4.21875H13.125C13.0007 4.21875 12.8815 4.16936 12.7935 4.08146C12.7056 3.99355 12.6562 3.87432 12.6562 3.75C12.6562 3.62568 12.7056 3.50645 12.7935 3.41854C12.8815 3.33064 13.0007 3.28125 13.125 3.28125H16.25C16.3743 3.28125 16.4935 3.33064 16.5815 3.41854C16.6694 3.50645 16.7188 3.62568 16.7188 3.75ZM6.875 15.7812H4.21875V13.125C4.21875 13.0007 4.16936 12.8815 4.08146 12.7935C3.99355 12.7056 3.87432 12.6562 3.75 12.6562C3.62568 12.6562 3.50645 12.7056 3.41854 12.7935C3.33064 12.8815 3.28125 13.0007 3.28125 13.125V16.25C3.28125 16.3743 3.33064 16.4935 3.41854 16.5815C3.50645 16.6694 3.62568 16.7188 3.75 16.7188H6.875C6.99932 16.7188 7.11855 16.6694 7.20646 16.5815C7.29436 16.4935 7.34375 16.3743 7.34375 16.25C7.34375 16.1257 7.29436 16.0065 7.20646 15.9185C7.11855 15.8306 6.99932 15.7812 6.875 15.7812ZM16.25 12.6562C16.1257 12.6562 16.0065 12.7056 15.9185 12.7935C15.8306 12.8815 15.7812 13.0007 15.7812 13.125V15.7812H13.125C13.0007 15.7812 12.8815 15.8306 12.7935 15.9185C12.7056 16.0065 12.6562 16.1257 12.6562 16.25C12.6562 16.3743 12.7056 16.4935 12.7935 16.5815C12.8815 16.6694 13.0007 16.7188 13.125 16.7188H16.25C16.3743 16.7188 16.4935 16.6694 16.5815 16.5815C16.6694 16.4935 16.7188 16.3743 16.7188 16.25V13.125C16.7188 13.0007 16.6694 12.8815 16.5815 12.7935C16.4935 12.7056 16.3743 12.6562 16.25 12.6562ZM6.875 3.28125H3.75C3.62568 3.28125 3.50645 3.33064 3.41854 3.41854C3.33064 3.50645 3.28125 3.62568 3.28125 3.75V6.875C3.28125 6.99932 3.33064 7.11855 3.41854 7.20646C3.50645 7.29436 3.62568 7.34375 3.75 7.34375C3.87432 7.34375 3.99355 7.29436 4.08146 7.20646C4.16936 7.11855 4.21875 6.99932 4.21875 6.875V4.21875H6.875C6.99932 4.21875 7.11855 4.16936 7.20646 4.08146C7.29436 3.99355 7.34375 3.87432 7.34375 3.75C7.34375 3.62568 7.29436 3.50645 7.20646 3.41854C7.11855 3.33064 6.99932 3.28125 6.875 3.28125Z" fill="var(--dui-text-primary)"/>
</svg>
