<svg width="20" height="20" viewBox="0 0 20 20" fill="none" xmlns="http://www.w3.org/2000/svg">
<path d="M16.25 14.5833C16.25 15.1359 16.0305 15.6658 15.6398 16.0565C15.2491 16.4472 14.7192 16.6667 14.1667 16.6667C13.6141 16.6667 13.0842 16.4472 12.6935 16.0565C12.3028 15.6658 12.0833 15.1359 12.0833 14.5833C12.0833 14.0308 12.3028 13.5009 12.6935 13.1102C13.0842 12.7195 13.6141 12.5 14.1667 12.5C14.7192 12.5 15.2491 12.7195 15.6398 13.1102C16.0305 13.5009 16.25 14.0308 16.25 14.5833ZM7.91667 14.5833C7.91667 15.1359 7.69717 15.6658 7.30647 16.0565C6.91577 16.4472 6.38587 16.6667 5.83333 16.6667C5.2808 16.6667 4.75089 16.4472 4.36019 16.0565C3.96949 15.6658 3.75 15.1359 3.75 14.5833C3.75 14.0308 3.96949 13.5009 4.36019 13.1102C4.75089 12.7195 5.2808 12.5 5.83333 12.5C6.38587 12.5 6.91577 12.7195 7.30647 13.1102C7.69717 13.5009 7.91667 14.0308 7.91667 14.5833Z" stroke="var(--dui-text-primary)" stroke-width="1.5"/>
<path d="M12.0833 14.5833H7.91667M12.5 12.9167V5.83333C12.5 4.65499 12.5 4.06583 12.1333 3.69999C11.7683 3.33333 11.1792 3.33333 10 3.33333H4.16667C2.98834 3.33333 2.39917 3.33333 2.03334 3.69999C1.66667 4.06499 1.66667 4.65416 1.66667 5.83333V12.5C1.66667 13.2792 1.66667 13.6683 1.83417 13.9583C1.94388 14.1483 2.10166 14.3061 2.29167 14.4158C2.58167 14.5833 2.97084 14.5833 3.75001 14.5833M12.9167 5.41666H14.4175C15.1092 5.41666 15.455 5.41666 15.7417 5.57916C16.0283 5.74083 16.2058 6.03749 16.5617 6.63083L17.9775 8.98916C18.1542 9.28416 18.2425 9.4325 18.2883 9.59583C18.3333 9.76 18.3333 9.93166 18.3333 10.2758V12.5C18.3333 13.2792 18.3333 13.6683 18.1658 13.9583C18.0561 14.1483 17.8983 14.3061 17.7083 14.4158C17.4183 14.5833 17.0292 14.5833 16.25 14.5833" stroke="var(--dui-text-primary)" stroke-width="1.5" stroke-linecap="round" stroke-linejoin="round"/>
</svg>
