<svg width="20" height="20" viewBox="0 0 20 20" fill="none" xmlns="http://www.w3.org/2000/svg">
<path d="M9.40625 18.6635V10.3223L1.6875 6.09501V14.0465C1.6875 14.1625 1.71798 14.2711 1.77894 14.3722C1.8399 14.4733 1.93094 14.5594 2.05206 14.6305L9.40625 18.6635ZM10.5938 18.6635L17.9467 14.6305C18.0687 14.5586 18.1601 14.4725 18.2211 14.3722C18.282 14.2711 18.3125 14.1625 18.3125 14.0465V6.09501L10.5938 10.3223V18.6635ZM10 9.35647L17.6297 5.18643L10.3657 1.20957C10.2438 1.13769 10.1219 1.10175 10 1.10175C9.87808 1.10175 9.75617 1.13769 9.63425 1.20957L2.37031 5.18531L10 9.35647ZM1.4595 15.6233C1.15867 15.4608 0.923938 15.24 0.755313 14.9607C0.585104 14.6814 0.5 14.3793 0.5 14.0544V5.94677C0.5 5.62107 0.585104 5.31858 0.755313 5.03931C0.924729 4.76003 1.15946 4.53916 1.4595 4.37669L9.0405 0.243711C9.34133 0.0812369 9.66117 0 10 0C10.3388 0 10.6587 0.0812369 10.9595 0.243711L18.5405 4.37669C18.8413 4.53841 19.0765 4.75929 19.2459 5.03931C19.4153 5.31858 19.5 5.62107 19.5 5.94677V14.0544C19.5 14.3793 19.4153 14.6814 19.2459 14.9607C19.0757 15.24 18.8405 15.4608 18.5405 15.6233L10.9595 19.7563C10.6587 19.9188 10.3388 20 10 20C9.66117 20 9.34133 19.9188 9.0405 19.7563L1.4595 15.6233Z" fill="var(--dui-text-primary)"/>
</svg>
