<svg width="20" height="20" viewBox="0 0 20 20" fill="none" xmlns="http://www.w3.org/2000/svg">
<path d="M20.8276 10.5745L20.8276 9.33709H18.1759C17.9108 7.92288 16.6291 6.81802 15.1265 6.81802H12.0329L12.0329 13.0936H15.1265C16.6291 13.0936 17.9108 11.9887 18.1759 10.5745L20.8276 10.5745ZM15.0823 11.812L13.2262 11.812V8.09965L15.0823 8.09965C16.143 8.09965 16.9827 8.93934 16.9385 9.95581C16.9385 11.0165 16.0988 11.8562 15.0823 11.812ZM9.64644 11.8562L9.64644 10.6187L7.96706 10.6187L7.96706 9.38128L9.64644 9.38128L9.64644 8.14385H7.96706V6.90641H4.87347C3.37087 6.90641 2.08924 8.01126 1.82407 9.42548H-0.827577L-0.827577 10.6629L1.82407 10.6629C1.95666 11.2374 2.26602 11.812 2.70796 12.2539C3.1499 12.6958 4.07798 13.182 4.91767 13.1378L8.01126 13.1378L8.01126 11.9004L9.69064 11.9004L9.64644 11.8562ZM4.82928 11.812C3.85701 11.812 2.97312 10.9281 2.97312 9.95581C2.97312 8.89515 3.81281 8.05546 4.82928 8.09965L6.68543 8.09965V11.812L4.82928 11.812ZM7.34834 5.58058L5.58058 3.81282L6.46446 2.92893L8.23223 4.6967L7.34834 5.58058ZM12.6516 5.58058L11.7678 4.6967L13.5355 2.92893L14.4194 3.81282L12.6516 5.58058ZM13.5355 17.0711L11.7678 15.3033L12.6516 14.4194L14.4194 16.1872L13.5355 17.0711ZM9.46348 18.2139L9.46304 15.7139L10.7137 15.7139L10.7133 18.2139H9.46348ZM9.46348 4.17875L9.46392 1.67956L10.7137 1.67956L10.7137 4.17919L9.46348 4.17875ZM6.46446 17.0711L5.58058 16.1872L7.34834 14.4194L8.23223 15.3033L6.46446 17.0711Z" fill="var(--dui-text-primary)"/>
</svg>
