<svg width="20" height="20" viewBox="0 0 20 20" fill="none" xmlns="http://www.w3.org/2000/svg">
<path d="M10.5942 13.9278C10.7536 13.7678 10.8334 13.5698 10.8334 13.3337C10.8334 13.0975 10.7534 12.8998 10.5934 12.7403C10.4334 12.5809 10.2356 12.5009 10 12.5003C9.76447 12.4998 9.56669 12.5798 9.40669 12.7403C9.24669 12.9009 9.16669 13.0987 9.16669 13.3337C9.16669 13.5687 9.24669 13.7667 9.40669 13.9278C9.56669 14.0889 9.76447 14.1687 10 14.167C10.2356 14.1653 10.4336 14.0862 10.5942 13.9278ZM9.16669 10.8337H10.8334V5.83366H9.16669V10.8337ZM10 18.3337C8.84724 18.3337 7.76391 18.1148 6.75002 17.677C5.73613 17.2392 4.85419 16.6456 4.10419 15.8962C3.35419 15.1467 2.76058 14.2648 2.32335 13.2503C1.88613 12.2359 1.66724 11.1525 1.66669 10.0003C1.66613 8.8481 1.88502 7.76477 2.32335 6.75033C2.76169 5.73588 3.3553 4.85394 4.10419 4.10449C4.85308 3.35505 5.73502 2.76144 6.75002 2.32366C7.76502 1.88588 8.84835 1.66699 10 1.66699C11.1517 1.66699 12.235 1.88588 13.25 2.32366C14.265 2.76144 15.147 3.35505 15.8959 4.10449C16.6447 4.85394 17.2386 5.73588 17.6775 6.75033C18.1164 7.76477 18.335 8.8481 18.3334 10.0003C18.3317 11.1525 18.1128 12.2359 17.6767 13.2503C17.2406 14.2648 16.647 15.1467 15.8959 15.8962C15.1447 16.6456 14.2628 17.2395 13.25 17.6778C12.2372 18.1162 11.1539 18.3348 10 18.3337ZM10 16.667C11.8611 16.667 13.4375 16.0212 14.7292 14.7295C16.0209 13.4378 16.6667 11.8614 16.6667 10.0003C16.6667 8.13921 16.0209 6.56283 14.7292 5.27116C13.4375 3.97949 11.8611 3.33366 10 3.33366C8.13891 3.33366 6.56252 3.97949 5.27085 5.27116C3.97919 6.56283 3.33335 8.13921 3.33335 10.0003C3.33335 11.8614 3.97919 13.4378 5.27085 14.7295C6.56252 16.0212 8.13891 16.667 10 16.667Z" fill="var(--dui-text-danger)"/>
</svg>
