<svg width="20" height="20" viewBox="7.5 0 5 20" fill="none" xmlns="http://www.w3.org/2000/svg">
<path d="M8.58579 9.86956V2.47826C8.58579 2.0862 8.73478 1.7102 9 1.43297C9.26522 1.15574 9.62493 1 10 1C10.3751 1 10.7348 1.15574 11 1.43297C11.2652 1.7102 11.4142 2.0862 11.4142 2.47826V9.86956C11.4142 10.2616 11.2652 10.6376 11 10.9149C10.7348 11.1921 10.3751 11.3478 10 11.3478C9.62493 11.3478 9.26522 11.1921 9 10.9149C8.73478 10.6376 8.58579 10.2616 8.58579 9.86956ZM12 15.913C12 16.3258 11.8827 16.7293 11.6629 17.0725C11.4432 17.4157 11.1308 17.6832 10.7654 17.8411C10.3999 17.9991 9.99778 18.0404 9.60982 17.9599C9.22186 17.8794 8.86549 17.6806 8.58578 17.3887C8.30608 17.0969 8.1156 16.725 8.03843 16.3202C7.96126 15.9154 8.00086 15.4957 8.15224 15.1144C8.30361 14.7331 8.55996 14.4071 8.88886 14.1778C9.21776 13.9485 9.60444 13.8261 10 13.8261C10.5304 13.8261 11.0391 14.046 11.4142 14.4373C11.7893 14.8287 12 15.3595 12 15.913Z" fill="var(--dui-text-warning)"/>
</svg>
