<svg width="20" height="20" viewBox="0 0 20 20" fill="none" xmlns="http://www.w3.org/2000/svg">
<path d="M14.7583 13.575L17.75 10.5833C17.8273 10.5062 17.8885 10.4147 17.9304 10.3138C17.9722 10.213 17.9937 10.105 17.9937 9.99583C17.9937 9.88669 17.9722 9.77862 17.9304 9.67781C17.8885 9.57699 17.8273 9.48542 17.75 9.40833L14.7583 6.41666C14.6025 6.26084 14.3912 6.17331 14.1708 6.17331C13.9505 6.17331 13.7391 6.26084 13.5833 6.41666C13.4275 6.57247 13.34 6.7838 13.34 7.00416C13.34 7.22451 13.4275 7.43584 13.5833 7.59166L15.1417 9.16666H8.33333C7.875 9.16666 7.5 9.54166 7.5 9.99999C7.5 10.4583 7.875 10.8333 8.33333 10.8333H15.1417L13.575 12.4C13.4977 12.4771 13.4365 12.5687 13.3946 12.6695C13.3528 12.7703 13.3313 12.8784 13.3313 12.9875C13.3313 13.0966 13.3528 13.2047 13.3946 13.3055C13.4365 13.4063 13.4977 13.4979 13.575 13.575C13.9 13.9 14.4333 13.9 14.7583 13.575Z" fill="var(--dui-text-primary)"/>
<path d="M15.8333 15.8333H4.16667V4.16667H15.8333V5C15.8333 5.45833 16.2083 5.83333 16.6667 5.83333C17.125 5.83333 17.5 5.45833 17.5 5V4.16667C17.5 3.25 16.75 2.5 15.8333 2.5H4.16667C3.25 2.5 2.5 3.25 2.5 4.16667V15.8333C2.5 16.75 3.25 17.5 4.16667 17.5H15.8333C16.2754 17.5 16.6993 17.3244 17.0118 17.0118C17.3244 16.6993 17.5 16.2754 17.5 15.8333V15C17.5 14.5417 17.125 14.1667 16.6667 14.1667C16.2083 14.1667 15.8333 14.5417 15.8333 15V15.8333Z" fill="var(--dui-text-primary)"/>
</svg>
