<svg width="20" height="20" viewBox="0 0 20 20" fill="none" xmlns="http://www.w3.org/2000/svg">
<path d="M10.8333 3.33333C10.8333 3.11232 10.7455 2.90036 10.5893 2.74408C10.433 2.5878 10.221 2.5 10 2.5C9.77899 2.5 9.56702 2.5878 9.41074 2.74408C9.25446 2.90036 9.16667 3.11232 9.16667 3.33333V17.5C9.16667 17.721 9.25446 17.933 9.41074 18.0893C9.56702 18.2455 9.77899 18.3333 10 18.3333C10.221 18.3333 10.433 18.2455 10.5893 18.0893C10.7455 17.933 10.8333 17.721 10.8333 17.5V3.33333ZM5.83333 3.33333H8.33333V7.5H5.83333C5.39131 7.5 4.96738 7.3244 4.65482 7.01184C4.34226 6.69928 4.16667 6.27536 4.16667 5.83333V5C4.16667 4.55797 4.34226 4.13405 4.65482 3.82149C4.96738 3.50893 5.39131 3.33333 5.83333 3.33333ZM4.16667 8.33333H8.33333V12.5H4.16667C3.72464 12.5 3.30072 12.3244 2.98816 12.0118C2.67559 11.6993 2.5 11.2754 2.5 10.8333V10C2.5 9.55797 2.67559 9.13405 2.98816 8.82149C3.30072 8.50893 3.72464 8.33333 4.16667 8.33333ZM11.6667 8.33333V12.5H13.3333C13.7754 12.5 14.1993 12.3244 14.5118 12.0118C14.8244 11.6993 15 11.2754 15 10.8333V10C15 9.55797 14.8244 9.13405 14.5118 8.82149C14.1993 8.50893 13.7754 8.33333 13.3333 8.33333H11.6667ZM6.66667 13.3333H8.33333V17.5H6.66667C6.22464 17.5 5.80072 17.3244 5.48816 17.0118C5.17559 16.6993 5 16.2754 5 15.8333V15C5 14.558 5.17559 14.134 5.48816 13.8215C5.80072 13.5089 6.22464 13.3333 6.66667 13.3333ZM11.6667 13.3333V17.5H15.8333C16.2754 17.5 16.6993 17.3244 17.0118 17.0118C17.3244 16.6993 17.5 16.2754 17.5 15.8333V15C17.5 14.558 17.3244 14.134 17.0118 13.8215C16.6993 13.5089 16.2754 13.3333 15.8333 13.3333H11.6667ZM11.6667 3.33333V7.5H15C15.442 7.5 15.8659 7.3244 16.1785 7.01184C16.4911 6.69928 16.6667 6.27536 16.6667 5.83333V5C16.6667 4.55797 16.4911 4.13405 16.1785 3.82149C15.8659 3.50893 15.442 3.33333 15 3.33333H11.6667Z" fill="var(--dui-text-primary)"/>
</svg>
