<svg width="20" height="20" viewBox="0 0 20 20" fill="none" xmlns="http://www.w3.org/2000/svg">
<path d="M15.625 11.875C15.0726 11.8747 14.5358 12.0583 14.0992 12.3969L12.2937 10.9906C12.4301 10.6782 12.5003 10.3409 12.5 9.99999C12.5 9.94218 12.5 9.88437 12.4937 9.82733L13.5273 9.4828C13.8543 9.98713 14.3521 10.3568 14.9294 10.524C15.5068 10.6912 16.125 10.6449 16.6709 10.3934C17.2169 10.1419 17.6539 9.70219 17.902 9.15473C18.1502 8.60727 18.1927 7.98874 18.022 7.41245C17.8512 6.83615 17.4785 6.34067 16.9722 6.01677C16.4659 5.69286 15.8598 5.56222 15.265 5.64877C14.6702 5.73531 14.1265 6.03326 13.7335 6.48802C13.3405 6.94279 13.1245 7.52393 13.125 8.12499C13.125 8.1828 13.125 8.24062 13.1312 8.29765L12.0977 8.64218C11.8711 8.29189 11.5604 8.00388 11.1941 7.80438C10.8277 7.60488 10.4172 7.50024 10 7.49999C9.86205 7.50028 9.72436 7.51178 9.58828 7.53437L9.0539 6.32812C9.51532 5.95944 9.83132 5.4393 9.94587 4.8599C10.0604 4.28049 9.96615 3.67924 9.67975 3.16271C9.39335 2.64618 8.93332 2.24772 8.3812 2.03797C7.82908 1.82821 7.22053 1.82071 6.66341 2.01678C6.10628 2.21285 5.63657 2.59984 5.33751 3.10915C5.03846 3.61846 4.92938 4.21721 5.02961 4.79926C5.12984 5.38131 5.43291 5.90908 5.88509 6.28903C6.33728 6.66898 6.90938 6.87656 7.5 6.87499C7.63794 6.8747 7.77563 6.86321 7.91172 6.84062L8.44609 8.04374C7.99293 8.4024 7.67841 8.90732 7.55629 9.47218C7.43417 10.037 7.51203 10.6268 7.77656 11.1406L5.76797 12.925C5.26249 12.5842 4.65007 12.4395 4.04552 12.518C3.44097 12.5964 2.88579 12.8927 2.48404 13.3512C2.08229 13.8097 1.86155 14.399 1.8632 15.0086C1.86485 15.6182 2.08878 16.2063 2.49301 16.6626C2.89724 17.119 3.45402 17.4122 4.05899 17.4874C4.66395 17.5626 5.27557 17.4145 5.7792 17.071C6.28283 16.7275 6.64389 16.2121 6.79471 15.6215C6.94552 15.0308 6.87574 14.4054 6.59844 13.8625L8.60703 12.0781C9.04193 12.3709 9.55807 12.5192 10.0821 12.5018C10.6061 12.4844 11.1113 12.3023 11.5258 11.9812L13.3312 13.3875C13.1954 13.699 13.1252 14.0351 13.125 14.375C13.125 14.8694 13.2716 15.3528 13.5463 15.7639C13.821 16.175 14.2115 16.4955 14.6683 16.6847C15.1251 16.8739 15.6278 16.9234 16.1127 16.827C16.5977 16.7305 17.0431 16.4924 17.3928 16.1428C17.7424 15.7931 17.9805 15.3477 18.077 14.8627C18.1734 14.3778 18.1239 13.8751 17.9347 13.4183C17.7455 12.9615 17.425 12.571 17.0139 12.2963C16.6028 12.0216 16.1195 11.875 15.625 11.875ZM15.625 6.87499C15.8722 6.87499 16.1139 6.9483 16.3195 7.08565C16.525 7.22301 16.6852 7.41823 16.7798 7.64664C16.8745 7.87504 16.8992 8.12638 16.851 8.36885C16.8027 8.61133 16.6837 8.83406 16.5089 9.00887C16.3341 9.18369 16.1113 9.30274 15.8689 9.35097C15.6264 9.3992 15.3751 9.37445 15.1466 9.27984C14.9182 9.18523 14.723 9.02502 14.5857 8.81945C14.4483 8.61389 14.375 8.37222 14.375 8.12499C14.375 7.79347 14.5067 7.47553 14.7411 7.24111C14.9755 7.00669 15.2935 6.87499 15.625 6.87499ZM6.25 4.37499C6.25 4.12776 6.32331 3.88609 6.46066 3.68053C6.59801 3.47497 6.79324 3.31475 7.02164 3.22014C7.25005 3.12553 7.50139 3.10078 7.74386 3.14901C7.98634 3.19724 8.20907 3.31629 8.38388 3.49111C8.5587 3.66592 8.67775 3.88865 8.72598 4.13113C8.77421 4.3736 8.74946 4.62494 8.65485 4.85335C8.56024 5.08175 8.40002 5.27698 8.19446 5.41433C7.9889 5.55168 7.74723 5.62499 7.5 5.62499C7.16848 5.62499 6.85054 5.49329 6.61612 5.25887C6.3817 5.02445 6.25 4.70651 6.25 4.37499ZM4.375 16.25C4.12777 16.25 3.8861 16.1767 3.68054 16.0393C3.47498 15.902 3.31476 15.7068 3.22015 15.4783C3.12554 15.2499 3.10079 14.9986 3.14902 14.7561C3.19725 14.5137 3.3163 14.2909 3.49112 14.1161C3.66593 13.9413 3.88866 13.8222 4.13114 13.774C4.37361 13.7258 4.62495 13.7505 4.85335 13.8451C5.08176 13.9398 5.27698 14.1 5.41434 14.3055C5.55169 14.5111 5.625 14.7528 5.625 15C5.625 15.3315 5.4933 15.6495 5.25888 15.8839C5.02446 16.1183 4.70652 16.25 4.375 16.25ZM8.75 9.99999C8.75 9.75276 8.82331 9.51109 8.96066 9.30553C9.09801 9.09997 9.29324 8.93975 9.52164 8.84514C9.75005 8.75053 10.0014 8.72578 10.2439 8.77401C10.4863 8.82224 10.7091 8.94129 10.8839 9.11611C11.0587 9.29092 11.1777 9.51365 11.226 9.75613C11.2742 9.9986 11.2495 10.2499 11.1548 10.4783C11.0602 10.7068 10.9 10.902 10.6945 11.0393C10.4889 11.1767 10.2472 11.25 10 11.25C9.66848 11.25 9.35054 11.1183 9.11612 10.8839C8.88169 10.6495 8.75 10.3315 8.75 9.99999ZM15.625 15.625C15.3778 15.625 15.1361 15.5517 14.9305 15.4143C14.725 15.277 14.5648 15.0818 14.4701 14.8533C14.3755 14.6249 14.3508 14.3736 14.399 14.1311C14.4472 13.8887 14.5663 13.6659 14.7411 13.4911C14.9159 13.3163 15.1387 13.1972 15.3811 13.149C15.6236 13.1008 15.8749 13.1255 16.1034 13.2201C16.3318 13.3148 16.527 13.475 16.6643 13.6805C16.8017 13.8861 16.875 14.1278 16.875 14.375C16.875 14.7065 16.7433 15.0245 16.5089 15.2589C16.2745 15.4933 15.9565 15.625 15.625 15.625Z" fill="var(--dui-text-primary)"/>
</svg>
