<svg width="20" height="20" viewBox="0 0 20 20" fill="none" xmlns="http://www.w3.org/2000/svg">
<path d="M3.14286 16.5L16.8571 16.5C17.4857 16.5 18 16.0125 18 15.4167L18 4.58333C18 3.9875 17.4857 3.5 16.8571 3.5L3.14286 3.5C2.51429 3.5 2 3.9875 2 4.58333L2 15.4167C2 16.0125 2.51429 16.5 3.14286 16.5ZM3.14286 10.5417L8.97143 10.5417L6.91429 12.4917L7.71428 13.25L11.1429 10L7.71428 6.75L6.91429 7.50833L8.97143 9.45833L3.14286 9.45833L3.14286 4.58333L12.2857 4.58333L12.2857 15.4167L3.14286 15.4167L3.14286 10.5417Z" fill="var(--dui-text-primary)"/>
</svg>
