<svg width="20" height="20" viewBox="0 0 20 20" fill="none" xmlns="http://www.w3.org/2000/svg">
<path d="M5.8898 1C5.57519 1.00555 5.2675 1.09339 4.99725 1.2548C4.72699 1.4162 4.50358 1.64557 4.34916 1.92014L0.238497 9.05869C0.082233 9.33104 0 9.63965 0 9.95376C0 10.2679 0.082233 10.5765 0.238497 10.8488L4.34775 18.047C4.50064 18.3254 4.72285 18.5595 4.99281 18.7265C5.26276 18.8935 5.57125 18.9877 5.88831 19H14.1084C14.4254 18.9891 14.7342 18.896 15.0045 18.7298C15.2748 18.5635 15.4974 18.3299 15.6506 18.0517L19.7598 10.8942C19.9173 10.6174 20.0001 10.3044 20 9.9858C20 9.67251 19.9199 9.35907 19.7598 9.07739L15.6505 1.92014C15.496 1.64567 15.2725 1.41639 15.0023 1.255C14.7321 1.09361 14.4244 1.00571 14.1099 1H5.8898Z" fill="var(--dui-text-primary)"/>
<path d="M13.8933 9.92L8.23103 5.67328C8.15509 5.61632 8.04995 5.68732 8.07441 5.77904L9.19313 9.97423C9.19763 9.99112 9.19763 10.0089 9.19313 10.0258L8.07441 14.221C8.04995 14.3127 8.15509 14.3837 8.23103 14.3267L13.8933 10.08C13.9467 10.04 13.9467 9.96 13.8933 9.92Z" fill="var(--dui-surface-panel-l1)" stroke="var(--dui-surface-panel-l1)"/>
<path d="M6 14L7 10L6 6" stroke="var(--dui-surface-panel-l1)" stroke-linecap="round"/>
</svg>
