<svg width="20" height="20" viewBox="0 0 20 20" fill="none" xmlns="http://www.w3.org/2000/svg">
<path fill-rule="evenodd" clip-rule="evenodd" d="M9.405 3.02536C10.6131 2.92225 11.8273 3.13474 12.9286 3.64202C14.0299 4.1493 14.9806 4.93397 15.6875 5.91916V4.53132C15.6875 4.35726 15.7566 4.19033 15.8797 4.06726C16.0028 3.94418 16.1697 3.87503 16.3438 3.87503C16.5178 3.87503 16.6847 3.94418 16.8078 4.06726C16.9309 4.19033 17 4.35726 17 4.53132V8.2503H13.2812C13.1072 8.2503 12.9403 8.18116 12.8172 8.05808C12.6941 7.935 12.625 7.76807 12.625 7.59401C12.625 7.41995 12.6941 7.25302 12.8172 7.12995C12.9403 7.00687 13.1072 6.93772 13.2812 6.93772H14.7924C14.194 6.00133 13.3344 5.26076 12.3198 4.80748C11.3052 4.35421 10.1801 4.20808 9.08342 4.38717C7.98673 4.56626 6.96652 5.0627 6.14881 5.81518C5.33111 6.56766 4.75173 7.54322 4.48225 8.62133C4.46237 8.70602 4.42586 8.78591 4.37483 8.85636C4.3238 8.92681 4.25928 8.98641 4.18501 9.0317C4.11074 9.07699 4.02821 9.10706 3.94222 9.12016C3.85622 9.13326 3.76848 9.12914 3.6841 9.10803C3.59971 9.08691 3.52037 9.04924 3.45067 8.99718C3.38098 8.94513 3.32233 8.87974 3.27813 8.80481C3.23394 8.72988 3.20507 8.64692 3.19323 8.56074C3.18138 8.47456 3.18679 8.38688 3.20912 8.30281C3.5631 6.88734 4.35048 5.61786 5.46119 4.67181C6.57191 3.72576 7.95045 3.15043 9.40412 3.02623L9.405 3.02536ZM6.43 16.0217C7.36799 16.5777 8.42288 16.9068 9.5106 16.9829C10.5983 17.059 11.6888 16.88 12.695 16.46C13.7013 16.0401 14.5955 15.3908 15.3065 14.5641C16.0175 13.7373 16.5255 12.7559 16.79 11.698C16.8294 11.5302 16.8012 11.3536 16.7114 11.2064C16.6217 11.0592 16.4776 10.9532 16.3104 10.9114C16.1431 10.8695 15.9662 10.8952 15.8177 10.9828C15.6692 11.0704 15.5611 11.2129 15.5169 11.3795C15.2472 12.4574 14.6678 13.4327 13.8502 14.185C13.0326 14.9373 12.0125 15.4336 10.916 15.6127C9.81952 15.7917 8.69458 15.6457 7.68012 15.1926C6.66566 14.7395 5.80612 13.9992 5.20762 13.0631H6.71875C6.8928 13.0631 7.05972 12.994 7.18279 12.8709C7.30586 12.7478 7.375 12.5809 7.375 12.4068C7.375 12.2328 7.30586 12.0658 7.18279 11.9427C7.05972 11.8197 6.8928 11.7505 6.71875 11.7505H3V15.4695C3 15.6436 3.06914 15.8105 3.19221 15.9336C3.31528 16.0566 3.4822 16.1258 3.65625 16.1258C3.8303 16.1258 3.99722 16.0566 4.12029 15.9336C4.24336 15.8105 4.3125 15.6436 4.3125 15.4695V14.0817C4.87668 14.8677 5.59769 15.5283 6.43 16.0217Z" fill="var(--dui-text-primary)"/>
</svg>
